<svg width="192" height="192" viewBox="0 0 192 192" xmlns="http://www.w3.org/2000/svg" role="img" aria-labelledby="title desc">
    <title id="title">4-choice Quiz Icon – Variant 3 (Centered Text, Lighter Buttons)</title>
    <desc id="desc"> Dark background with green glow. Text is centered. Unselected buttons are lighter. </desc>
    <defs>
        <linearGradient id="bgGrad2" x1="0" y1="0" x2="0" y2="1">
            <stop offset="0%" stop-color="#020617" />
            <stop offset="100%" stop-color="#000310" />
        </linearGradient>
        <linearGradient id="topGlow2" x1="0" y1="0" x2="0" y2="1">
            <stop offset="0%" stop-color="#22c55e" stop-opacity="0.7" />
            <stop offset="50%" stop-color="#22c55e" stop-opacity="0" />
        </linearGradient>
        <radialGradient id="bottomGlow2" cx="50%" cy="100%" r="70%">
            <stop offset="0%" stop-color="#0ea5e9" stop-opacity="0.35" />
            <stop offset="70%" stop-color="#0ea5e9" stop-opacity="0" />
        </radialGradient>
    </defs>
    
    <rect x="8" y="8" width="176" height="176" rx="40" fill="url(#bgGrad2)" />
    
    <rect x="8" y="8" width="176" height="72" rx="40" fill="url(#topGlow2)" opacity="0.85" />
    
    <rect x="8" y="96" width="176" height="88" rx="40" fill="url(#bottomGlow2)" opacity="0.8" />
    <rect x="18" y="18" width="156" height="156" rx="30" fill="none" stroke="#020c1a" stroke-width="3" />

    <g id="layer1" transform="translate(-20, -15)">
        <path
            style="fill:#e5e7eb; stroke-width:0.264583"
            d="m 148.70678,107.3753 c -2.6089,-2.13554 -5.18461,-4.3071 -7.85971,-6.34293 -2.03807,-2.658956 -4.20138,-5.029712 -7.03731,-2.039253 -2.09685,1.289503 -4.0385,-2.267668 -5.43557,0.756506 -3.81616,2.833537 -3.31875,-4.000156 -5.94141,-5.437455 -1.75405,-3.10257 -4.58153,-5.448621 -6.01579,-8.754349 -0.9725,-3.025854 -7.84108,-1.151147 -6.95024,2.132055 -0.0783,5.374553 0.10382,10.753471 0.81179,16.078546 0.19178,4.38605 -4.64773,3.10468 -5.13879,-0.33192 -1.37714,-2.63439 -2.60974,-5.683008 -1.52336,-8.491195 -0.0196,-2.209289 1.49883,-8.783843 -2.37593,-5.297048 -3.19786,1.992916 -6.824488,3.03016 -10.472911,3.756427 -3.884435,0.850128 -7.64706,-0.462922 -11.126578,-2.033428 -2.685326,-1.7057 -6.477328,-3.595672 -6.326586,-7.167279 0.781401,-1.940604 4.193836,-2.171031 6.793113,-2.357409 3.161642,-1.082491 4.501918,-4.585905 6.690656,-6.857506 2.063565,-2.945521 4.661158,-5.263728 6.834957,-8.137805 3.043878,-3.531608 5.697008,-8.132528 5.165948,-12.94098 -1.084448,-2.666403 1.380951,-4.085713 2.066031,-6.445682 1.72994,-0.3479 1.57743,2.044401 3.57645,1.642381 2.96184,1.269244 2.72922,4.683953 4.10056,6.982191 -1.60676,1.516996 -3.37125,3.78429 -2.77168,6.15067 1.89047,1.3934 4.81143,3.05924 4.41049,5.724483 -0.2,2.740023 -0.14085,5.489556 -0.18359,8.234657 2.99153,0.963286 5.33256,-2.007972 4.15253,-4.813905 -0.349,-4.826154 -0.30608,-10.153326 2.96038,-14.077318 3.13362,-4.098485 7.20682,-7.885933 12.48743,-8.762674 3.50697,-0.873238 7.25486,0.659931 10.02203,2.767735 4.67005,2.343017 8.66019,6.725285 9.0422,12.132755 -0.28764,5.958696 -0.19048,12.190964 -2.84393,17.695176 -1.13622,3.86243 -3.36424,7.370523 -4.1208,11.328736 2.2737,2.232686 3.66926,5.740453 6.53321,7.205632 2.37907,1.321016 4.52804,4.633226 4.49375,7.381256 -1.20039,0.53803 -2.80671,1.30646 -4.01734,0.31893 z M 125.10873,87.020727 c -0.75261,-3.211636 -1.09827,-6.565086 -2.42651,-9.595059 0.0609,-1.567427 1.59169,-4.17002 3.34525,-2.755267 2.62007,1.152072 4.99826,2.570964 7.15291,4.358125 1.64547,0.313264 3.18103,5.351962 3.91674,3.741641 0.47647,-3.17646 1.95955,-5.816817 2.55665,-8.90991 0.9851,-4.658754 1.75761,-9.581363 0.84345,-14.295955 -1.18286,-3.335851 -5.45336,-3.455199 -7.91002,-1.461155 -2.74506,2.316648 -5.69087,4.659091 -7.54759,7.783806 -0.69346,3.219403 -3.93108,5.481674 -3.48141,9.223555 -1.11853,3.203996 0.35859,6.248225 1.08757,9.304454 0.13836,0.720021 2.76429,6.425511 2.46296,2.605765 z m 3.71046,-1.0849 c 0.28542,-1.628818 -3.02786,-5.284673 -1.42054,-1.93885 0.31195,1.051787 2.09231,5.052775 1.42054,1.93885 z m -26.24627,-11.10868 c 2.44424,-0.183663 1.36752,-5.593728 0.83749,-5.8256 -0.63133,1.963591 -3.13023,4.459862 -2.86904,6.081488 0.68011,-0.0659 1.34592,-0.235596 2.03155,-0.255888 z"
            id="path302" />
    </g>

    <rect x="56" y="86" width="80" height="4" rx="2" fill="#22c55e" />
    
    <rect x="40" y="100" width="52" height="30" rx="10" fill="none" stroke="#1e293b" stroke-width="2" />
    <rect x="100" y="100" width="52" height="30" rx="10" fill="none" stroke="#1e293b" stroke-width="2" />
    <rect x="40" y="138" width="52" height="30" rx="10" fill="none" stroke="#1e293b" stroke-width="2" />
    
    <rect x="100" y="138" width="52" height="30" rx="12" fill="#22c55e" stroke="#16a34a" stroke-width="2" />
    <path d="M110 154 L120 162 L140 144" fill="none" stroke="#f9fafb" stroke-width="3.5" stroke-linecap="round" stroke-linejoin="round" />
</svg>